<svg width="23" height="16" viewBox="0 0 23 16" fill="none" xmlns="http://www.w3.org/2000/svg">
<path d="M22.108 10.032C21.9808 9.99929 21.8484 9.99205 21.7184 10.0107C21.5884 10.0293 21.4634 10.0734 21.3505 10.1405C21.2376 10.2076 21.139 10.2963 21.0605 10.4016C20.982 10.5069 20.9251 10.6266 20.893 10.754C20.7106 11.4611 20.2765 12.0773 19.672 12.487C19.0676 12.8967 18.3343 13.0717 17.61 12.9791C16.8857 12.8866 16.22 12.5328 15.738 11.9843C15.256 11.4358 14.9907 10.7302 14.992 9.99999V8.99999H21.992C22.2572 8.99999 22.5116 8.89463 22.6991 8.7071C22.8866 8.51956 22.992 8.26521 22.992 7.99999C22.992 6.67391 22.4652 5.40214 21.5275 4.46446C20.5899 3.52678 19.3181 2.99999 17.992 2.99999C16.6659 2.99999 15.3942 3.52678 14.4565 4.46446C13.5188 5.40214 12.992 6.67391 12.992 7.99999V9.99999C12.991 11.2174 13.4344 12.3934 14.2389 13.3071C15.0434 14.2208 16.1538 14.8094 17.3616 14.9625C18.5693 15.1155 19.7915 14.8225 20.7985 14.1384C21.8055 13.4543 22.5283 12.4262 22.831 11.247C22.8634 11.1197 22.8704 10.9873 22.8516 10.8574C22.8328 10.7274 22.7886 10.6024 22.7214 10.4896C22.6543 10.3767 22.5655 10.2782 22.4603 10.1997C22.355 10.1212 22.2353 10.0642 22.108 10.032ZM17.992 4.99999C18.7855 5.00056 19.5466 5.31429 20.11 5.87299C20.423 6.19272 20.6617 6.57752 20.809 6.99999H15.176C15.3815 6.41668 15.7624 5.91127 16.2667 5.55317C16.7709 5.19507 17.3736 5.00183 17.992 4.99999ZM15.992 1.99999H19.992C20.2572 1.99999 20.5116 1.89463 20.6991 1.7071C20.8866 1.51956 20.992 1.26521 20.992 0.999991C20.992 0.734775 20.8866 0.480421 20.6991 0.292885C20.5116 0.105348 20.2572 -8.5573e-06 19.992 -8.5573e-06H15.992C15.7268 -8.5573e-06 15.4724 0.105348 15.2849 0.292885C15.0974 0.480421 14.992 0.734775 14.992 0.999991C14.992 1.26521 15.0974 1.51956 15.2849 1.7071C15.4724 1.89463 15.7268 1.99999 15.992 1.99999ZM9.91 6.71799C10.4438 6.15028 10.7995 5.43862 10.9331 4.67095C11.0668 3.90328 10.9726 3.11327 10.6622 2.39856C10.3517 1.68385 9.83866 1.07578 9.18639 0.649493C8.53411 0.22321 7.77122 -0.00259425 6.992 -8.5573e-06H1.992C1.72679 -8.5573e-06 1.47243 0.105348 1.2849 0.292885C1.09736 0.480421 0.992004 0.734775 0.992004 0.999991V14C0.992004 14.2652 1.09736 14.5196 1.2849 14.7071C1.47243 14.8946 1.72679 15 1.992 15H7.492C8.46489 15.0015 9.41196 14.687 10.1908 14.104C10.9696 13.521 11.5381 12.7008 11.8108 11.7669C12.0834 10.833 12.0455 9.83583 11.7028 8.92533C11.36 8.01483 10.7309 7.24022 9.91 6.71799ZM2.992 1.99999H6.992C7.52244 1.99999 8.03115 2.21071 8.40622 2.58578C8.78129 2.96085 8.992 3.46956 8.992 3.99999C8.992 4.53042 8.78129 5.03913 8.40622 5.4142C8.03115 5.78928 7.52244 5.99999 6.992 5.99999H2.992V1.99999ZM7.492 13H2.992V7.99999H7.492C8.15505 7.99999 8.79093 8.26338 9.25977 8.73222C9.72861 9.20107 9.992 9.83695 9.992 10.5C9.992 11.163 9.72861 11.7989 9.25977 12.2678C8.79093 12.7366 8.15505 13 7.492 13Z" fill="white"/>
</svg>
