<svg width="30" height="30" viewBox="0 0 30 30" fill="none" xmlns="http://www.w3.org/2000/svg">
<path d="M25.108 18.032C24.9808 17.9993 24.8484 17.9921 24.7184 18.0107C24.5884 18.0293 24.4634 18.0734 24.3505 18.1405C24.2376 18.2076 24.139 18.2963 24.0605 18.4016C23.982 18.5069 23.9251 18.6266 23.893 18.754C23.7106 19.4611 23.2765 20.0773 22.672 20.487C22.0676 20.8967 21.3344 21.0717 20.61 20.9791C19.8857 20.8866 19.22 20.5328 18.738 19.9843C18.256 19.4358 17.9907 18.7302 17.992 18V17H24.992C25.2572 17 25.5116 16.8946 25.6991 16.7071C25.8866 16.5196 25.992 16.2652 25.992 16C25.992 14.6739 25.4652 13.4021 24.5275 12.4645C23.5899 11.5268 22.3181 11 20.992 11C19.6659 11 18.3942 11.5268 17.4565 12.4645C16.5188 13.4021 15.992 14.6739 15.992 16V18C15.991 19.2174 16.4344 20.3934 17.2389 21.3071C18.0434 22.2208 19.1538 22.8094 20.3616 22.9625C21.5693 23.1155 22.7915 22.8225 23.7985 22.1384C24.8055 21.4543 25.5283 20.4262 25.831 19.247C25.8634 19.1197 25.8704 18.9873 25.8516 18.8574C25.8328 18.7274 25.7886 18.6024 25.7214 18.4896C25.6543 18.3767 25.5655 18.2782 25.4603 18.1997C25.355 18.1212 25.2353 18.0642 25.108 18.032ZM20.992 13C21.7855 13.0006 22.5466 13.3143 23.11 13.873C23.423 14.1927 23.6617 14.5775 23.809 15H18.176C18.3815 14.4167 18.7624 13.9113 19.2667 13.5532C19.7709 13.1951 20.3736 13.0018 20.992 13ZM18.992 9.99999H22.992C23.2572 9.99999 23.5116 9.89463 23.6991 9.7071C23.8866 9.51956 23.992 9.26521 23.992 8.99999C23.992 8.73477 23.8866 8.48042 23.6991 8.29288C23.5116 8.10535 23.2572 7.99999 22.992 7.99999H18.992C18.7268 7.99999 18.4724 8.10535 18.2849 8.29288C18.0974 8.48042 17.992 8.73477 17.992 8.99999C17.992 9.26521 18.0974 9.51956 18.2849 9.7071C18.4724 9.89463 18.7268 9.99999 18.992 9.99999ZM12.91 14.718C13.4438 14.1503 13.7995 13.4386 13.9331 12.6709C14.0668 11.9033 13.9726 11.1133 13.6622 10.3986C13.3517 9.68385 12.8387 9.07578 12.1864 8.64949C11.5341 8.22321 10.7712 7.99741 9.992 7.99999H4.992C4.72679 7.99999 4.47243 8.10535 4.2849 8.29288C4.09736 8.48042 3.992 8.73477 3.992 8.99999V22C3.992 22.2652 4.09736 22.5196 4.2849 22.7071C4.47243 22.8946 4.72679 23 4.992 23H10.492C11.4649 23.0015 12.412 22.687 13.1908 22.104C13.9696 21.521 14.5381 20.7008 14.8108 19.7669C15.0834 18.833 15.0455 17.8358 14.7028 16.9253C14.36 16.0148 13.7309 15.2402 12.91 14.718ZM5.992 9.99999H9.992C10.5224 9.99999 11.0311 10.2107 11.4062 10.5858C11.7813 10.9609 11.992 11.4696 11.992 12C11.992 12.5304 11.7813 13.0391 11.4062 13.4142C11.0311 13.7893 10.5224 14 9.992 14H5.992V9.99999ZM10.492 21H5.992V16H10.492C11.155 16 11.7909 16.2634 12.2598 16.7322C12.7286 17.2011 12.992 17.837 12.992 18.5C12.992 19.163 12.7286 19.7989 12.2598 20.2678C11.7909 20.7366 11.155 21 10.492 21Z" fill="white"/>
<rect x="1" y="1" width="28" height="28" stroke="white"/>
</svg>
