<svg width="120" height="120" viewBox="0 0 120 120" fill="none" xmlns="http://www.w3.org/2000/svg">
<g clip-path="url(#clip0_11_1455)">
<path d="M45 104.516C53.28 104.516 60 97.8684 60 89.6774V74.8387H45C36.72 74.8387 30 81.4865 30 89.6774C30 97.8684 36.72 104.516 45 104.516Z" fill="#0ACF83"/>
<path d="M30 60C30 51.809 36.72 45.1613 45 45.1613H60V74.8387H45C36.72 74.8387 30 68.191 30 60Z" fill="#A259FF"/>
<path d="M30 30.3226C30 22.1316 36.72 15.4839 45 15.4839H60V45.1613H45C36.72 45.1613 30 38.5136 30 30.3226Z" fill="#F24E1E"/>
<path d="M60 15.4839H75C83.28 15.4839 90 22.1316 90 30.3226C90 38.5136 83.28 45.1613 75 45.1613H60V15.4839Z" fill="#FF7262"/>
<path d="M90 60C90 68.191 83.28 74.8387 75 74.8387C66.72 74.8387 60 68.191 60 60C60 51.809 66.72 45.1613 75 45.1613C83.28 45.1613 90 51.809 90 60Z" fill="#1ABCFE"/>
</g>
<defs>
<clipPath id="clip0_11_1455">
<rect width="60" height="89.0323" fill="white" transform="translate(30 15.4839)"/>
</clipPath>
</defs>
</svg>
