<svg width="120" height="120" viewBox="0 0 120 120" fill="none" xmlns="http://www.w3.org/2000/svg">
<g clip-path="url(#clip0_11_1458)">
<path d="M100.078 1.62161H19.9219C8.91933 1.62161 0 10.5082 0 21.4703V98.3429C0 109.305 8.91933 118.192 19.9219 118.192H100.078C111.081 118.192 120 109.305 120 98.3429V21.4703C120 10.5082 111.081 1.62161 100.078 1.62161Z" fill="#330000"/>
<path d="M58.1503 71.5776H39.555L35.7712 83.2874C35.7198 83.501 35.5951 83.6899 35.4187 83.8218C35.2424 83.9536 35.0254 84.0199 34.8052 84.0094H25.3866C24.8498 84.0094 24.6619 83.7152 24.8231 83.1267L40.9233 36.9293C41.0841 36.4483 41.2453 35.9005 41.4061 35.2854C41.617 34.215 41.7248 33.1277 41.7281 32.0372C41.7172 31.9609 41.7242 31.8832 41.7486 31.8101C41.773 31.7369 41.8142 31.6705 41.8689 31.616C41.9236 31.5615 41.9902 31.5204 42.0636 31.496C42.1369 31.4716 42.215 31.4645 42.2916 31.4754H55.0912C55.4662 31.4754 55.6809 31.6094 55.7353 31.877L74.0086 83.207C74.1698 83.7422 74.0086 84.0099 73.5258 84.0094H63.0605C62.8808 84.0293 62.6999 83.9832 62.5518 83.8799C62.4037 83.7766 62.2984 83.6231 62.2556 83.448L58.1503 71.5776ZM42.4528 61.4721H55.1719L54.9905 60.8757L54.6994 59.9313L54.4917 59.2682L54.1603 58.2239L53.4558 56.0256L52.8361 54.0767L51.2269 49.0001C50.8263 47.7381 50.4419 46.4711 50.0737 45.1994L49.7794 44.1673L49.4353 42.947L48.9103 41.0555L48.8119 40.6992H48.7317C48.3289 42.6243 47.8384 44.5302 47.2617 46.4109L46.0673 50.2387L45.4102 52.3534L44.7469 54.4942C44.6269 54.8809 44.5078 55.2634 44.3883 55.6412L44.032 56.7612L43.6777 57.8549L43.3252 58.9216L42.9745 59.9617C42.8583 60.304 42.742 60.6417 42.6262 60.9751L42.4528 61.4721ZM84.8752 39.9771C84.0541 40.01 83.2354 39.8698 82.4725 39.5658C81.7095 39.2617 81.0196 38.8006 80.4478 38.2127C79.8775 37.5993 79.4346 36.8796 79.1444 36.095C78.8543 35.3104 78.7226 34.4764 78.757 33.641C78.7278 32.8139 78.8741 31.99 79.1862 31.2231C79.4983 30.4562 79.9692 29.7635 80.5683 29.1902C81.7238 28.0851 83.2626 27.4666 84.8644 27.4636L85.0359 27.4655C86.9681 27.4655 88.4845 28.0399 89.5847 29.1898C90.14 29.7872 90.5715 30.4878 90.8546 31.2516C91.1378 32.0155 91.2669 32.8274 91.2347 33.641C91.2684 34.4798 91.1326 35.3167 90.8353 36.1022C90.538 36.8876 90.0853 37.6055 89.5041 38.2132C88.9172 38.7895 88.2206 39.243 87.4552 39.547C86.6897 39.851 85.871 39.9993 85.0472 39.9832L84.8752 39.9771ZM79.3205 83.207V44.8697C79.3205 44.3887 79.5342 44.1477 79.9645 44.1477H89.8664C90.2953 44.1477 90.51 44.3882 90.5105 44.8697V83.207C90.5105 83.7422 90.2958 84.0099 89.8664 84.0094H80.0452C79.5877 84.0094 79.3467 83.7693 79.3228 83.2892L79.3205 83.207Z" fill="#FF9A00"/>
</g>
<defs>
<clipPath id="clip0_11_1458">
<rect width="120" height="116.757" fill="white" transform="translate(0 1.62161)"/>
</clipPath>
</defs>
</svg>
