<svg width="30" height="30" viewBox="0 0 30 30" fill="none" xmlns="http://www.w3.org/2000/svg">
<path d="M9.94 7.99999C9.93974 8.53043 9.72877 9.03903 9.35351 9.41391C8.97825 9.7888 8.46944 9.99926 7.939 9.99899C7.40857 9.99873 6.89997 9.78776 6.52508 9.4125C6.1502 9.03724 5.93974 8.52843 5.94 7.99799C5.94027 7.46756 6.15124 6.95896 6.5265 6.58407C6.90176 6.20919 7.41057 5.99873 7.941 5.99899C8.47144 5.99926 8.98004 6.21023 9.35492 6.58549C9.72981 6.96075 9.94027 7.46956 9.94 7.99999ZM10 11.48H6V24H10V11.48ZM16.32 11.48H12.34V24H16.28V17.43C16.28 13.77 21.05 13.43 21.05 17.43V24H25V16.07C25 9.89999 17.94 10.13 16.28 13.16L16.32 11.48Z" fill="white"/>
<rect x="1" y="1" width="28" height="28" stroke="white"/>
</svg>
