<svg width="101" height="42" viewBox="0 0 101 42" fill="none" xmlns="http://www.w3.org/2000/svg">
<path d="M5.43164 7.40625L11.0566 19.3418L16.7168 7.40625H22.0254L13.5176 23.6309V33H8.61328V23.6309L0.0878906 7.40625H5.43164ZM32.4415 28.957V20.1855C32.4415 19.541 32.3302 18.9844 32.1075 18.5156C31.8848 18.0469 31.545 17.6836 31.088 17.4258C30.6309 17.168 30.0509 17.0391 29.3477 17.0391C28.7266 17.0391 28.1817 17.1445 27.713 17.3555C27.2559 17.5664 26.9044 17.8652 26.6583 18.252C26.4122 18.627 26.2891 19.0605 26.2891 19.5527H21.6309C21.6309 18.7676 21.8184 18.0234 22.1934 17.3203C22.5684 16.6055 23.1016 15.9727 23.793 15.4219C24.4962 14.8594 25.3341 14.4199 26.3067 14.1035C27.2911 13.7871 28.3927 13.6289 29.6114 13.6289C31.0528 13.6289 32.336 13.875 33.461 14.3672C34.5977 14.8477 35.4884 15.5742 36.1329 16.5469C36.7891 17.5195 37.1173 18.7441 37.1173 20.2207V28.5176C37.1173 29.4668 37.1759 30.2812 37.293 30.9609C37.422 31.6289 37.6095 32.209 37.8555 32.7012V33H33.127C32.9044 32.5195 32.7345 31.9102 32.6173 31.1719C32.5001 30.4219 32.4415 29.6836 32.4415 28.957ZM33.0919 21.416L33.127 24.1758H30.1915C29.4649 24.1758 28.8263 24.252 28.2755 24.4043C27.7247 24.5449 27.2735 24.7559 26.922 25.0371C26.5704 25.3066 26.3067 25.6348 26.1309 26.0215C25.9552 26.3965 25.8673 26.8242 25.8673 27.3047C25.8673 27.7734 25.9727 28.1953 26.1837 28.5703C26.4063 28.9453 26.7227 29.2441 27.1329 29.4668C27.5548 29.6777 28.047 29.7832 28.6095 29.7832C29.4298 29.7832 30.1446 29.6191 30.754 29.291C31.3634 28.9512 31.838 28.541 32.1778 28.0605C32.5177 27.5801 32.6993 27.123 32.7227 26.6895L34.0587 28.6934C33.8946 29.1738 33.6485 29.6836 33.3204 30.2227C32.9923 30.7617 32.5704 31.2656 32.0548 31.7344C31.5391 32.2031 30.918 32.5898 30.1915 32.8945C29.4649 33.1992 28.6212 33.3516 27.6602 33.3516C26.4298 33.3516 25.3282 33.1055 24.3555 32.6133C23.3829 32.1211 22.6153 31.4473 22.0528 30.5918C21.4903 29.7363 21.2091 28.7637 21.2091 27.6738C21.2091 26.666 21.3966 25.7754 21.7716 25.002C22.1466 24.2285 22.7032 23.5781 23.4415 23.0508C24.1798 22.5117 25.0938 22.1074 26.1837 21.8379C27.2852 21.5566 28.545 21.416 29.963 21.416H33.0919ZM44.8615 5.98242V33H40.2209V5.98242H44.8615ZM56.7795 13.9805L48.5002 23.2793L44.0177 27.832L42.5412 24.2285L46.0041 19.8691L51.172 13.9805H56.7795ZM52.0334 33L46.1447 24.1406L49.2384 21.1348L57.4123 33H52.0334ZM63.0823 6V33H58.4241V6H63.0823ZM74.9749 33.3516C73.5335 33.3516 72.2386 33.1172 71.0902 32.6484C69.9417 32.1797 68.9632 31.5293 68.1546 30.6973C67.3577 29.8535 66.7425 28.875 66.3089 27.7617C65.887 26.6367 65.6761 25.4297 65.6761 24.1406V23.4375C65.6761 21.9727 65.887 20.6426 66.3089 19.4473C66.7308 18.2402 67.3284 17.2031 68.1019 16.3359C68.8753 15.4688 69.8011 14.8008 70.8792 14.332C71.9573 13.8633 73.1468 13.6289 74.4476 13.6289C75.7952 13.6289 76.9847 13.8574 78.0159 14.3145C79.0472 14.7598 79.9085 15.3926 80.5999 16.2129C81.2913 17.0332 81.8128 18.0176 82.1644 19.166C82.5159 20.3027 82.6917 21.5625 82.6917 22.9453V24.8965H67.7855V21.6973H78.1214V21.3457C78.098 20.6074 77.9573 19.9336 77.6995 19.3242C77.4417 18.7031 77.0433 18.2109 76.5042 17.8477C75.9652 17.4727 75.2679 17.2852 74.4124 17.2852C73.721 17.2852 73.1175 17.4375 72.6019 17.7422C72.098 18.0352 71.6761 18.457 71.3363 19.0078C71.0081 19.5469 70.762 20.1914 70.598 20.9414C70.4339 21.6914 70.3519 22.5234 70.3519 23.4375V24.1406C70.3519 24.9375 70.4573 25.6758 70.6683 26.3555C70.8909 27.0352 71.2132 27.627 71.6351 28.1309C72.0687 28.623 72.5843 29.0098 73.182 29.291C73.7913 29.5605 74.4827 29.6953 75.2562 29.6953C76.2288 29.6953 77.1077 29.5078 77.8929 29.1328C78.6898 28.7461 79.3812 28.1777 79.9671 27.4277L82.305 29.8535C81.9066 30.4395 81.3675 31.002 80.6878 31.541C80.0198 32.0801 79.2113 32.5195 78.262 32.8594C77.3128 33.1875 76.2171 33.3516 74.9749 33.3516ZM99.6293 29.3438V33H85.3207V29.3438H99.6293ZM99.2953 16.7578L87.0609 33H84.0023V30.1348L96.1664 13.9805H99.2953V16.7578ZM97.5902 13.9805V17.6543H84.2484V13.9805H97.5902Z" fill="white"/>
</svg>
