<svg width="266" height="74" viewBox="0 0 266 74" fill="none" xmlns="http://www.w3.org/2000/svg">
<path d="M14.4844 4.75L29.4844 36.5781L44.5781 4.75H58.7344L36.0469 48.0156V73H22.9688V48.0156L0.234375 4.75H14.4844ZM86.5106 62.2188V38.8281C86.5106 37.1094 86.2137 35.625 85.62 34.375C85.0262 33.125 84.12 32.1562 82.9012 31.4688C81.6825 30.7812 80.1356 30.4375 78.2606 30.4375C76.6044 30.4375 75.1512 30.7188 73.9012 31.2812C72.6825 31.8438 71.745 32.6406 71.0887 33.6719C70.4325 34.6719 70.1044 35.8281 70.1044 37.1406H57.6825C57.6825 35.0469 58.1825 33.0625 59.1825 31.1875C60.1825 29.2812 61.6044 27.5938 63.4481 26.125C65.3231 24.625 67.5575 23.4531 70.1512 22.6094C72.7762 21.7656 75.7137 21.3438 78.9637 21.3438C82.8075 21.3438 86.2294 22 89.2294 23.3125C92.2606 24.5938 94.6356 26.5312 96.3544 29.125C98.1044 31.7188 98.9794 34.9844 98.9794 38.9219V61.0469C98.9794 63.5781 99.1356 65.75 99.4481 67.5625C99.7919 69.3438 100.292 70.8906 100.948 72.2031V73H88.3387C87.745 71.7188 87.2919 70.0938 86.9794 68.125C86.6669 66.125 86.5106 64.1562 86.5106 62.2188ZM88.245 42.1094L88.3387 49.4688H80.5106C78.5731 49.4688 76.87 49.6719 75.4012 50.0781C73.9325 50.4531 72.7294 51.0156 71.7919 51.7656C70.8544 52.4844 70.1512 53.3594 69.6825 54.3906C69.2137 55.3906 68.9794 56.5312 68.9794 57.8125C68.9794 59.0625 69.2606 60.1875 69.8231 61.1875C70.4169 62.1875 71.2606 62.9844 72.3544 63.5781C73.4794 64.1406 74.7919 64.4219 76.2919 64.4219C78.4794 64.4219 80.3856 63.9844 82.0106 63.1094C83.6356 62.2031 84.9012 61.1094 85.8075 59.8281C86.7137 58.5469 87.1981 57.3281 87.2606 56.1719L90.8231 61.5156C90.3856 62.7969 89.7294 64.1562 88.8544 65.5938C87.9794 67.0312 86.8544 68.375 85.4794 69.625C84.1044 70.875 82.4481 71.9062 80.5106 72.7188C78.5731 73.5312 76.3231 73.9375 73.7606 73.9375C70.4794 73.9375 67.5419 73.2812 64.9481 71.9688C62.3544 70.6562 60.3075 68.8594 58.8075 66.5781C57.3075 64.2969 56.5575 61.7031 56.5575 58.7969C56.5575 56.1094 57.0575 53.7344 58.0575 51.6719C59.0575 49.6094 60.5419 47.875 62.5106 46.4688C64.4794 45.0312 66.9169 43.9531 69.8231 43.2344C72.7606 42.4844 76.12 42.1094 79.9012 42.1094H88.245ZM119.631 0.953125V73H107.256V0.953125H119.631ZM151.412 22.2812L129.334 47.0781L117.381 59.2188L113.443 49.6094L122.677 37.9844L136.459 22.2812H151.412ZM138.756 73L123.052 49.375L131.302 41.3594L153.099 73H138.756ZM168.219 1V73H155.798V1H168.219ZM199.933 73.9375C196.089 73.9375 192.636 73.3125 189.574 72.0625C186.511 70.8125 183.902 69.0781 181.746 66.8594C179.621 64.6094 177.98 62 176.824 59.0312C175.699 56.0312 175.136 52.8125 175.136 49.375V47.5C175.136 43.5938 175.699 40.0469 176.824 36.8594C177.949 33.6406 179.542 30.875 181.605 28.5625C183.667 26.25 186.136 24.4688 189.011 23.2188C191.886 21.9688 195.058 21.3438 198.527 21.3438C202.121 21.3438 205.292 21.9531 208.042 23.1719C210.792 24.3594 213.089 26.0469 214.933 28.2344C216.777 30.4219 218.167 33.0469 219.105 36.1094C220.042 39.1406 220.511 42.5 220.511 46.1875V51.3906H180.761V42.8594H208.324V41.9219C208.261 39.9531 207.886 38.1562 207.199 36.5312C206.511 34.875 205.449 33.5625 204.011 32.5938C202.574 31.5938 200.714 31.0938 198.433 31.0938C196.589 31.0938 194.98 31.5 193.605 32.3125C192.261 33.0938 191.136 34.2188 190.23 35.6875C189.355 37.125 188.699 38.8438 188.261 40.8438C187.824 42.8438 187.605 45.0625 187.605 47.5V49.375C187.605 51.5 187.886 53.4688 188.449 55.2812C189.042 57.0938 189.902 58.6719 191.027 60.0156C192.183 61.3281 193.558 62.3594 195.152 63.1094C196.777 63.8281 198.621 64.1875 200.683 64.1875C203.277 64.1875 205.621 63.6875 207.714 62.6875C209.839 61.6562 211.683 60.1406 213.246 58.1406L219.48 64.6094C218.417 66.1719 216.98 67.6719 215.167 69.1094C213.386 70.5469 211.23 71.7188 208.699 72.625C206.167 73.5 203.246 73.9375 199.933 73.9375ZM265.678 63.25V73H227.522V63.25H265.678ZM264.788 29.6875L232.163 73H224.006V65.3594L256.444 22.2812H264.788V29.6875ZM260.241 22.2812V32.0781H224.663V22.2812H260.241Z" fill="#171A1B"/>
</svg>
