<svg width="120" height="120" viewBox="0 0 120 120" fill="none" xmlns="http://www.w3.org/2000/svg">
<path d="M26.064 24.936C29.424 27.664 30.68 27.456 36.992 27.032L96.456 23.464C97.72 23.464 96.672 22.208 96.248 22L86.368 14.856C84.48 13.384 81.96 11.704 77.128 12.128L19.544 16.328C17.448 16.536 17.024 17.584 17.864 18.424L26.064 24.936ZM29.632 38.792V101.36C29.632 104.72 31.312 105.984 35.096 105.776L100.456 101.992C104.232 101.784 104.656 99.472 104.656 96.744V34.592C104.656 31.872 103.608 30.392 101.296 30.6L32.992 34.592C30.472 34.8 29.632 36.064 29.632 38.792ZM94.152 42.152C94.568 44.04 94.152 45.928 92.256 46.144L89.104 46.768V92.96C86.376 94.432 83.848 95.28 81.744 95.28C78.384 95.28 77.544 94.224 75.024 91.072L54.424 58.736V90.024L60.944 91.496C60.944 91.496 60.944 95.272 55.688 95.272L41.192 96.112C40.768 95.272 41.192 93.176 42.664 92.752L46.44 91.712V50.336L41.2 49.92C40.776 48.032 41.824 45.304 44.768 45.088L60.32 44.048L81.76 76.8V47.824L76.296 47.192C75.872 44.88 77.552 43.2 79.656 42.992L94.16 42.152H94.152ZM14.712 10.656L74.608 6.248C81.96 5.608 83.848 6.03999 88.472 9.39999L107.592 22.84C110.752 25.144 111.8 25.776 111.8 28.296V101.992C111.8 106.616 110.12 109.352 104.232 109.76L34.68 113.96C30.264 114.176 28.16 113.544 25.848 110.6L11.768 92.336C9.248 88.976 8.2 86.456 8.2 83.512V18C8.2 14.224 9.88 11.072 14.712 10.656Z" fill="black"/>
</svg>
