<svg width="120" height="120" viewBox="0 0 120 120" fill="none" xmlns="http://www.w3.org/2000/svg">
<g clip-path="url(#clip0_11_1457)">
<path d="M21.2498 1.30435H98.7502C110.5 1.30435 120 10.821 120 22.5912V97.221C120 108.991 110.5 118.508 98.7502 118.508H21.2498C9.50016 118.508 0 108.991 0 97.221V22.5912C0 10.821 9.50016 1.30435 21.2498 1.30435Z" fill="#00005B"/>
<path d="M28.5 83.497V31.9576C28.5 31.6068 28.65 31.4068 29.0002 31.4068L29.7258 31.4054L30.2873 31.4007L30.6834 31.3932L31.1053 31.3824L31.5586 31.3664L31.8 31.3565C32.25 31.3377 32.707 31.326 33.1734 31.3161L34.6055 31.2861C34.7681 31.2823 34.9327 31.2781 35.0981 31.2729L35.5997 31.2565C36.0497 31.2396 36.5109 31.2283 36.9834 31.2189L38.4333 31.1931L39.4369 31.171L39.9502 31.156C40.9833 31.1232 41.9944 31.1119 42.998 31.1081L44.4998 31.1062C48.6 31.1062 51.9998 31.6068 54.8002 32.6586C57.3101 33.5125 59.5988 34.9156 61.5 36.7659C63.1112 38.3851 64.3561 40.3324 65.1502 42.4758C65.9002 44.5795 66.3 46.7334 66.3 48.9873C66.3 53.2946 65.3002 56.8506 63.3 59.6558C61.2998 62.4605 58.5 64.5642 55.2502 65.7663C51.9633 66.9768 48.3497 67.4379 44.4089 67.4675H42.9797L42.4233 67.4619L42.0666 67.4534L41.8566 67.4445L41.6681 67.4332L41.4998 67.4191C41.3919 67.4086 41.2838 67.4004 41.1755 67.3947L40.9317 67.3839L40.6645 67.3769L40.2188 67.3708L39.3502 67.3689V83.4468C39.3998 83.7976 39.15 84.0981 38.7998 84.1483H29.1C28.7002 84.1483 28.5 83.9478 28.5 83.497ZM39.3998 41.0732V57.9025L39.9877 57.9447C40.4409 57.9794 40.8953 57.9989 41.3498 58.0029H44.0002C45.9502 58.0029 47.9002 57.7024 49.7498 57.1014C51.3502 56.6506 52.7498 55.6988 53.85 54.4465C54.9 53.1946 55.4002 51.4915 55.4002 49.2878C55.4472 47.7225 55.0482 46.1762 54.2498 44.8298C53.4356 43.5821 52.2994 42.6101 50.9302 42.0462L50.7502 41.9748C48.9 41.2235 46.8998 40.923 44.85 40.9732L43.6941 40.9746L43.1508 40.9779L42.6319 40.985L42.1392 40.9962C41.8992 41.0028 41.6691 41.0117 41.4502 41.0235C41.3427 41.0181 41.2352 41.0137 41.1277 41.0103L40.8281 41.0037C40.7813 41.0032 40.7344 41.0029 40.6875 41.0028L40.4222 41.0042L40.1813 41.0108L40.0697 41.0155L39.8648 41.0272L39.6848 41.0413L39.6038 41.0488L39.4617 41.0653L39.3998 41.0732ZM73.2998 43.9784H82.05C82.522 43.9784 82.9055 44.2912 83.0728 44.7058L83.1 44.78C83.25 45.1805 83.3498 45.5811 83.4 46.0318C83.4998 46.5329 83.6002 47.0837 83.6498 47.5847L83.692 48.0693C83.7248 48.483 83.7502 48.923 83.7502 49.3878C85.182 47.713 86.8993 46.3062 88.822 45.2326L89.1 45.0805C91.4002 43.7779 94.05 43.1271 96.6998 43.1271C97.05 43.0769 97.35 43.3272 97.4002 43.6779V53.6454C97.4002 54.0459 97.1498 54.1962 96.6 54.1962C94.92 54.1492 93.1969 54.2774 91.5516 54.6202L91.2 54.6972C89.7502 54.9977 88.35 55.4485 87 56.0496C86.0498 56.5003 85.1498 57.1014 84.45 57.9025V83.4468C84.45 83.9478 84.2498 84.1483 83.7998 84.1483H73.95C73.5502 84.1981 73.2 83.9478 73.1498 83.5473V55.5988C73.1498 54.3967 73.1498 53.1444 73.1002 51.8422L73.0702 50.8656L73.0298 48.9122C73.0219 48.5863 73.0125 48.2609 72.9998 47.9355C72.9998 46.7832 72.9 45.6816 72.8002 44.5292C72.75 44.279 72.9 44.0287 73.1498 43.9784C73.1498 43.9357 73.2234 43.9296 73.2759 43.9597L73.2998 43.9784Z" fill="#9999FF"/>
</g>
<defs>
<clipPath id="clip0_11_1457">
<rect width="120" height="117.391" fill="white" transform="translate(0 1.30435)"/>
</clipPath>
</defs>
</svg>
