<svg width="120" height="120" viewBox="0 0 120 120" fill="none" xmlns="http://www.w3.org/2000/svg">
<path d="M108.787 18.8625L87.165 8.4525C85.9439 7.86374 84.5699 7.66945 83.2334 7.89656C81.897 8.12367 80.6643 8.76093 79.7062 9.72L8.92499 74.25C8.0662 75.0292 7.55214 76.1177 7.49588 77.276C7.43962 78.4343 7.84577 79.5674 8.62499 80.4262C8.71874 80.5275 8.81249 80.625 8.91374 80.715L14.6925 85.965C15.4476 86.6522 16.4196 87.0533 17.4396 87.0985C18.4596 87.1437 19.4633 86.8302 20.2762 86.2125L105.532 21.5625C106.176 21.0738 106.944 20.7746 107.749 20.6986C108.554 20.6225 109.364 20.7726 110.088 21.1319C110.812 21.4912 111.421 22.0456 111.848 22.7325C112.274 23.4194 112.5 24.2116 112.5 25.02V24.7687C112.5 23.5346 112.151 22.3256 111.495 21.2807C110.838 20.2359 109.9 19.3977 108.787 18.8625Z" fill="#0065A9"/>
<path d="M108.787 101.137L87.165 111.551C85.9435 112.138 84.5699 112.332 83.2339 112.105C81.8978 111.878 80.6652 111.241 79.7062 110.284L8.92499 45.75C8.0662 44.9707 7.55214 43.8823 7.49588 42.724C7.43962 41.5657 7.84577 40.4326 8.62499 39.5737C8.71874 39.4725 8.81249 39.375 8.91374 39.285L14.6925 34.035C15.4484 33.3449 16.4226 32.942 17.4451 32.8968C18.4677 32.8516 19.4736 33.1668 20.2875 33.7875L105.532 98.4375C106.176 98.9261 106.944 99.2253 107.749 99.3014C108.554 99.3775 109.364 99.2274 110.088 98.8681C110.812 98.5088 111.421 97.9544 111.848 97.2675C112.274 96.5806 112.5 95.7884 112.5 94.98V95.25C112.496 96.4808 112.146 97.6857 111.489 98.7268C110.833 99.768 109.896 100.603 108.787 101.137Z" fill="#007ACC"/>
<path d="M87.165 111.551C85.9435 112.138 84.5699 112.332 83.2339 112.105C81.8978 111.878 80.6652 111.241 79.7062 110.284C80.2447 110.815 80.9281 111.176 81.6708 111.321C82.4134 111.466 83.1823 111.388 83.881 111.098C84.5797 110.807 85.1772 110.317 85.5986 109.689C86.0201 109.06 86.2466 108.322 86.25 107.565V12.435C86.2506 11.6748 86.0256 10.9316 85.6035 10.2994C85.1813 9.6672 84.5811 9.17453 83.8787 8.88379C83.1763 8.59304 82.4035 8.5173 81.658 8.66616C80.9126 8.81502 80.2281 9.18178 79.6912 9.71999C80.6494 8.76127 81.8819 8.12397 83.2181 7.89623C84.5543 7.66849 85.9283 7.86156 87.15 8.44874L108.769 18.8437C109.884 19.3762 110.827 20.2133 111.487 21.2584C112.147 22.3034 112.498 23.5139 112.5 24.75V95.25C112.5 96.4852 112.152 97.6953 111.494 98.7409C110.837 99.7865 109.897 100.625 108.784 101.16L87.165 111.551Z" fill="#1F9CF0"/>
</svg>
